<svg width="87" height="87" viewBox="0 0 87 87" fill="none" xmlns="http://www.w3.org/2000/svg">
<path d="M10.5531 30.711C8.97843 31.0242 7.36023 32.277 6.55113 33.8082C5.28963 36.192 5.30703 39.5937 6.58593 42.195C7.37763 43.7871 8.83923 44.9355 10.527 45.2922C11.2839 45.4575 12.4497 45.414 13.2675 45.2052C14.4768 44.8833 16.2168 43.8132 17.2608 42.7257L17.6001 42.3777L17.0955 41.76L16.5996 41.1336L16.1472 41.5599C14.3724 43.2738 12.3366 43.9959 10.5879 43.5435C9.83103 43.3434 9.40473 43.0911 8.82183 42.4995C8.20413 41.8644 7.75173 41.0292 7.46463 39.9765C7.21233 39.0282 7.18623 36.7923 7.42983 35.931C8.09103 33.5298 9.79623 32.1465 11.8929 32.3031C13.4763 32.4249 14.4072 33.3558 14.7813 35.1915C14.8596 35.5917 14.9466 35.9484 14.9727 35.9745C15.0075 36.0006 15.3294 35.9745 15.6948 35.9223L16.3734 35.8179L16.3125 35.4177C16.2081 34.5912 16.095 32.8077 16.095 31.8159V30.798H15.399H14.703V31.2765C14.703 31.5375 14.6856 31.755 14.6682 31.755C14.6508 31.755 14.4333 31.6245 14.1897 31.4592C13.1631 30.7632 11.7537 30.4761 10.5531 30.711Z" fill="#292920"/>
<path d="M36.6009 33.9822C35.8788 34.1562 35.1828 34.5216 34.6521 35.0088L34.191 35.4264V34.8087V34.191H32.538H30.885V34.974V35.757H31.755H32.625V41.412V47.067H31.755H30.885V47.85V48.633H34.1475H37.41V47.85V47.067H35.8005H34.191V45.3183V43.5696L34.7304 44.0655C36.7836 45.9186 39.5763 45.6663 41.3946 43.4652C42.2907 42.3864 42.717 41.1162 42.717 39.5502C42.717 37.7667 42.2037 36.4704 41.064 35.3133C39.8286 34.0518 38.2452 33.582 36.6009 33.9822ZM38.7498 35.67C40.2549 36.1398 41.2728 37.9581 41.1249 39.9243C41.0292 41.1162 40.5768 42.0732 39.7503 42.8475C39.0978 43.4565 38.6541 43.6305 37.7145 43.6305C37.0098 43.6305 36.8706 43.6044 36.3399 43.3521C34.9392 42.6822 34.104 41.2728 34.104 39.5415C34.104 38.3322 34.4172 37.4535 35.1306 36.6879C36.1311 35.6178 37.41 35.2611 38.7498 35.67Z" fill="#292920"/>
<path d="M48.9201 33.93C46.8408 34.3041 45.3096 35.7396 44.7093 37.8885C44.4309 38.8629 44.4309 40.3071 44.7093 41.2815C44.9964 42.3081 45.4488 43.0998 46.1535 43.8132C47.2323 44.9094 48.6417 45.4053 50.373 45.3009C51.8868 45.2052 52.8612 44.7789 53.8617 43.7697C54.5751 43.0476 55.0188 42.2646 55.2972 41.238C55.5147 40.455 55.5147 38.715 55.3059 37.932C54.7926 36.0528 53.4789 34.6434 51.7215 34.104C51.0255 33.8865 49.6422 33.8082 48.9201 33.93ZM51.0081 35.6265C51.6954 35.8092 52.1478 36.0528 52.6524 36.5226C53.4876 37.3056 53.8617 38.2539 53.8617 39.585C53.8617 40.9161 53.4876 41.8644 52.6524 42.6474C51.9129 43.3347 51.0342 43.674 49.9554 43.674C48.1458 43.674 46.7103 42.543 46.2405 40.7421C46.0752 40.1244 46.0752 38.9934 46.2318 38.4105C46.5972 37.0359 47.6064 35.9745 48.8853 35.6178C49.4421 35.4699 50.4165 35.4699 51.0081 35.6265Z" fill="#292920"/>
<path d="M74.5156 33.9735C73.8022 34.104 72.7843 34.4346 71.9839 34.8C71.5141 35.0088 71.4184 35.0871 71.4619 35.2089C71.8621 36.2964 71.9926 36.5487 72.1144 36.5052C72.1927 36.4878 72.5842 36.3225 72.9931 36.1572C74.1676 35.67 74.7505 35.5482 75.8206 35.5395C76.6906 35.5395 76.8211 35.5656 77.23 35.7744C77.926 36.1485 78.2044 36.6879 78.2131 37.7058V38.1321L77.7172 38.0712C76.3948 37.932 74.8549 37.9233 74.1415 38.0538C71.3227 38.5584 69.8698 40.9422 70.9399 43.2912C71.0617 43.5522 71.3662 43.9698 71.6185 44.2221C73.0888 45.6924 75.3508 45.6837 77.4127 44.196C77.8129 43.9089 78.1522 43.674 78.1783 43.674C78.1957 43.674 78.2131 43.9698 78.2131 44.3265V44.979H79.9096H81.6061V44.196V43.413H80.6491H79.6921V40.1679C79.6921 36.6618 79.6399 36.1746 79.2136 35.4438C78.4741 34.1823 76.5862 33.5907 74.5156 33.9735ZM78.0217 39.7242C78.2044 39.7764 78.2131 39.8199 78.2131 40.5855V41.3946L77.6215 41.9949C76.6036 43.0128 75.6292 43.5522 74.6113 43.6479C73.9501 43.7088 73.4542 43.5783 72.9757 43.2129C71.7751 42.3081 72.0274 40.7334 73.5064 39.9765C74.1154 39.6633 74.794 39.585 76.3426 39.6285C77.1604 39.6546 77.9086 39.6981 78.0217 39.7242Z" fill="#292920"/>
<path d="M18.5833 34.2954C18.5311 34.452 18.1744 38.8281 18.2092 38.8542C18.244 38.889 19.6099 39.0543 19.636 39.0282C19.6621 39.0021 19.9231 36.1659 19.9231 35.9049C19.9231 35.7657 20.0623 35.757 21.5761 35.757H23.2291V39.585V43.413H21.9241H20.6191V44.196V44.979H24.0121H27.4051V44.196V43.413H26.0566H24.7081V39.585V35.757H26.3611C27.2746 35.757 28.0141 35.7657 28.0228 35.7744C28.0228 35.7918 28.0924 36.5226 28.1707 37.41L28.3186 39.0195L28.5361 39.0021C28.6579 38.9934 28.9798 38.9673 29.2582 38.9325L29.7541 38.8803V38.5584C29.7541 38.3844 29.6758 37.3578 29.5801 36.279C29.4844 35.2002 29.4061 34.2954 29.4061 34.2519C29.4061 34.2171 26.9788 34.191 24.0121 34.191C19.7665 34.191 18.6094 34.2171 18.5833 34.2954Z" fill="#292920"/>
<path d="M57.507 34.974V35.757H58.464H59.421V39.585V43.413H58.464H57.507V44.196V44.979H60.1605H62.814V44.196V43.413H61.857H60.9V41.7078V40.0026L61.7091 40.0374C63.1794 40.107 63.5361 40.4115 65.3457 43.1868L66.5115 44.979H67.8861H69.252V44.196V43.413H68.3037H67.3554L66.4506 42.0036C65.424 40.3854 64.8411 39.7068 64.1625 39.3588C63.9015 39.2196 63.684 39.0891 63.684 39.063C63.6927 39.0369 63.8145 38.9412 63.9711 38.8455C64.119 38.7498 64.6932 38.0886 65.25 37.3839C66.294 36.0528 66.6072 35.757 67.0074 35.757C67.2336 35.757 67.2336 35.7657 67.2945 36.4965L67.3554 37.236H68.0427H68.73V35.7048V34.1736L67.6251 34.2084C65.8851 34.2693 65.7024 34.3824 63.945 36.5748C63.3273 37.3491 62.6748 38.0712 62.5008 38.193C62.2485 38.3583 62.0397 38.4192 61.5351 38.4366L60.9 38.4714V37.1142V35.757H61.857H62.814V34.974V34.191H60.1605H57.507V34.974Z" fill="#292920"/>
<path d="M4.43701 53.766V54.897H43.5H82.563V53.766V52.635H43.5H4.43701V53.766Z" fill="#292920"/>
</svg>
